<?xml version="1.0" encoding="UTF-8" standalone="no"?>
<svg width="301px" height="100px" viewBox="0 0 301 100" version="1.1" xmlns="http://www.w3.org/2000/svg" xmlns:xlink="http://www.w3.org/1999/xlink" xmlns:sketch="http://www.bohemiancoding.com/sketch/ns">
    <!-- Generator: Sketch 3.4 (15588) - http://www.bohemiancoding.com/sketch -->
    <title>logo + name</title>
    <desc>Created with Sketch.</desc>
    <defs>
        <path id="path-1" d="M0.222439024,0.326 L74.1463415,0.326 L74.1463415,37.4688571 L0.222439024,37.4688571 L0.222439024,0.326 Z"></path>
    </defs>
    <g id="Page-1" stroke="none" stroke-width="1" fill="none" fill-rule="evenodd" sketch:type="MSPage">
        <g id="A6-Copy" sketch:type="MSArtboardGroup" transform="translate(-34.000000, -29.000000)">
            <g id="logo-+-name" sketch:type="MSLayerGroup" transform="translate(34.000000, 19.000000)">
                <text id="Kaka" sketch:type="MSTextLayer" font-family="Ardeco" font-size="110" font-weight="normal" fill="#003153">
                    <tspan x="127.15" y="99">Kaka</tspan>
                </text>
                <g id="Group" transform="translate(0.850000, 10.000000)">
                    <path d="M72.0811072,27.1413679 C65.6633004,24.1719811 58.312943,22.4848113 50.5012012,22.4848113 C42.6886443,22.4848113 35.3374718,24.1719811 28.9188498,27.1421698 C21.4160562,20.539434 9.90101256,20.9483962 0.45812244,15 C-1.80804076,20.9443868 4.84942502,36.4384434 9.12171328,45.3385849 C6.55964459,50.1932075 5.12332101,55.573066 5.12332101,61.2424057 C5.12332101,82.6479717 25.4389035,100 50.5012012,100 C75.5618686,100 95.8782663,82.6479717 95.8782663,61.2424057 C95.8782663,55.573066 94.4411275,50.1924057 91.8790589,45.3385849 C96.1513471,36.4376415 102.807998,20.9443868 100.541835,15 C91.0989444,20.9483962 79.5847159,20.539434 72.0811072,27.1413679 Z" id="Fill-20" fill="#003153" sketch:type="MSShapeGroup"></path>
                    <path d="M59.5001247,57.516656 C61.1761994,53.3702846 66.9410787,51.115446 71.2162956,52.2928687 C71.3822679,52.4311592 71.6161008,52.5124146 71.8499336,52.4967886 C73.6919806,53.1812094 75.1800079,54.5656771 75.8071051,56.7994205 C76.0572899,57.6924491 77.5044373,57.3127361 77.2534349,56.4189263 C77.0245077,55.6055905 76.7015567,54.8860111 76.3050219,54.2523749 L76.3099275,54.2484684 C77.6802208,52.9882277 79.3366732,52.1405147 81.2801022,52.3084947 C82.2440496,52.3920941 82.2358736,50.957623 81.2801022,50.8748049 C79.0341621,50.6802606 77.0187845,51.670952 75.411388,53.0976101 C74.7434109,52.3928754 73.9576998,51.8451824 73.0918641,51.443593 C74.1424768,50.3825845 75.4686198,49.6403472 77.0294132,49.4411152 C77.9737383,49.3207946 77.9868198,47.8847609 77.0294132,48.0074254 C74.7932843,48.2926007 73.0166451,49.3145442 71.6046544,50.906057 C66.6148574,49.5965943 60.0421918,52.2178636 58.0537948,57.1361618 C57.7046807,57.9995009 59.1559162,58.3698382 59.5001247,57.516656 L59.5001247,57.516656 Z" id="Fill-22" fill="#FFFFFF" sketch:type="MSShapeGroup"></path>
                    <path d="M40.5006689,57.516656 C38.8237784,53.3702846 33.0589052,51.115446 28.7836929,52.2928687 C28.6185384,52.4311592 28.3838881,52.5124146 28.1500555,52.4967886 C26.3080105,53.1812094 24.8199848,54.5656771 24.1928883,56.7994205 C23.9435213,57.6924491 22.4955578,57.3127361 22.7473776,56.4189263 C22.975487,55.6055905 23.2984377,54.8860111 23.694972,54.2523749 L23.6892488,54.2484684 C22.3197746,52.9882277 20.6625064,52.1405147 18.719897,52.3084947 C17.7559507,52.3920941 17.7641267,50.957623 18.719897,50.8748049 C20.9658347,50.6802606 22.9820278,51.670952 24.5894226,53.0976101 C25.2565814,52.3928754 26.0422916,51.8451824 26.908944,51.443593 C25.8583324,50.3825845 24.5321908,49.6403472 22.9697638,49.4411152 C22.0262574,49.3207946 22.0131759,47.8847609 22.9697638,48.0074254 C25.206708,48.2926007 26.9841629,49.3145442 28.3953345,50.906057 C33.3859438,49.5965943 39.9586024,52.2178636 41.9461796,57.1361618 C42.2952933,57.9995009 40.844877,58.3698382 40.5006689,57.516656" id="Fill-23" fill="#FFFFFF" sketch:type="MSShapeGroup"></path>
                    <path d="M34.5497938,78.0860688 C34.3442277,78.2536015 34.0521609,78.3520388 33.7611118,78.3331085 C32.5481264,78.771765 31.4584731,79.4477896 30.5855795,80.3879521 C29.8085367,81.2248771 29.2032632,82.2711158 28.835665,83.5455523 C28.5252804,84.627416 26.7230147,84.1674109 27.0364522,83.0846008 C27.3203778,82.0992814 27.7223512,81.2275434 28.2159135,80.4599219 C29.0380325,79.4055041 28.3614919,80.2424809 29.3292273,79.0609766 C30.1596332,78.2072224 31.137599,77.5437172 32.2163125,77.0572098 C33.761112,76.4060093 32.463531,76.8500504 34.066408,76.4060093 C40.2781698,74.8196545 48.4590927,77.9952036 50.9330103,83.9534991 C51.3675486,84.9993953 49.5622299,85.4480422 49.1337975,84.4144507 C47.0465885,79.3913094 39.8711081,76.6596746 34.5497938,78.0860688 Z" id="Fill-23-Copy" fill="#FFFFFF" sketch:type="MSShapeGroup" transform="translate(39.000000, 80.500000) scale(1, -1) translate(-39.000000, -80.500000) "></path>
                    <path d="M57.5497938,78.0860688 C57.3442277,78.2536015 57.0521609,78.3520388 56.7611118,78.3331085 C55.5481264,78.771765 54.4584731,79.4477896 53.5855795,80.3879521 C52.8085367,81.2248771 52.2032632,82.2711158 51.835665,83.5455523 C51.5252804,84.627416 49.7230147,84.1674109 50.0364522,83.0846008 C50.3203778,82.0992814 50.7223512,81.2275434 51.2159135,80.4599219 C52.0380325,79.4055041 51.3614919,80.2424809 52.3292273,79.0609766 C53.1596332,78.2072224 54.137599,77.5437172 55.2163125,77.0572098 C56.761112,76.4060093 55.463531,76.8500504 57.066408,76.4060093 C63.2781698,74.8196545 71.4590927,77.9952036 73.9330103,83.9534991 C74.3675486,84.9993953 72.5622299,85.4480422 72.1337975,84.4144507 C70.0465885,79.3913094 62.8711081,76.6596746 57.5497938,78.0860688 Z" id="Fill-23-Copy-2" fill="#FFFFFF" sketch:type="MSShapeGroup" transform="translate(62.000000, 80.500000) scale(-1, -1) translate(-62.000000, -80.500000) "></path>
                    <path d="M47.7619346,69.4016612 C49.2407387,69.3864063 50.7228164,69.3742023 52.1827979,69.582432 C51.8137106,70.2200879 51.1966557,70.8279966 50.5705986,71.196403 L50.4944897,71.2635247 C49.550903,70.889779 48.3585302,70.2605134 47.7619346,69.4016612 L47.7619346,69.4016612 Z M51.1999292,72.449595 L51.3284141,72.404593 C52.4103062,71.7699881 53.323613,70.7555357 53.7999074,69.6526047 L53.8350976,69.4657319 C54.117437,69.1041902 54.0642427,68.5122991 53.4635552,68.3849205 C51.2572154,67.9181198 49.0042283,68.0035474 46.7577881,68.0104121 C46.2233891,68.0119376 45.994244,68.4360245 46.0498935,68.8173976 C45.9983359,68.9409625 45.9770581,69.080545 46.033526,69.246061 C46.5507392,70.7601122 48.1310219,71.7722764 49.6507448,72.4290009 L49.6630204,72.5106147 C50.5182226,74.8270749 48.8854463,77 50.482199,77 C52.0789517,77 51.4200721,73.2405628 51.1999292,72.449595 Z" id="Fill-24" fill="#FFFFFF" sketch:type="MSShapeGroup"></path>
                    <g id="crown" transform="translate(13.000000, 0.000000)">
                        <mask id="mask-2" sketch:name="Clip 2" fill="white">
                            <use xlink:href="#path-1"></use>
                        </mask>
                        <g id="Clip-2"></g>
                        <path d="M2.70634146,19.0422857 C3.02517073,20.3348571 3.35882927,21.6237143 3.67765854,22.9162857 C25.5026341,15.6622857 48.6585366,15.718 70.4390244,23.0611429 C70.7726829,21.7128571 71.1211707,20.3757143 71.451122,19.0422857 C49.0070244,11.5394286 25.1541463,11.5394286 2.70634146,19.0422857 L2.70634146,19.0422857 Z" id="Fill-1" fill="#E9BE32" sketch:type="MSShapeGroup" mask="url(#mask-2)"></path>
                        <path d="M69.1933659,22.3925714 C71.1619512,21.5531429 72.5373659,19.592 72.5373659,17.3151429 C72.5373659,14.2694286 70.0757073,11.7882857 67.020878,11.7882857 C63.980878,11.7882857 61.5043902,14.2694286 61.5043902,17.3151429 C61.5043902,18.448 61.852878,19.5065714 62.4460488,20.3905714 C58.9982439,23.2914286 55.0017561,24.7882857 50.931122,24.3091429 C46.2673171,23.7297143 42.2003902,20.6505714 39.2456585,16.082 C39.7090732,16.2268571 40.1724878,16.3271429 40.6803902,16.3271429 C43.3719024,16.3271429 45.5740488,14.1394286 45.5740488,11.4242857 C45.5740488,8.89857143 43.6610732,6.85571429 41.2142439,6.57714286 C41.4478049,6.04228571 41.577561,5.448 41.577561,4.824 C41.577561,2.34285714 39.5644878,0.326 37.0731707,0.326 C34.5966829,0.326 32.5836098,2.34285714 32.5836098,4.824 C32.5836098,5.448 32.7133659,6.04228571 32.9469268,6.57714286 C30.5000976,6.85571429 28.587122,8.89857143 28.587122,11.4242857 C28.587122,14.1394286 30.774439,16.3271429 33.4807805,16.3271429 C33.9738537,16.3271429 34.4520976,16.2268571 34.9006829,16.082 C31.9607805,20.6654286 27.8790244,23.7297143 23.2300488,24.3091429 C19.1445854,24.7882857 15.1480976,23.2765714 11.715122,20.3905714 C12.3082927,19.5065714 12.6419512,18.4628571 12.6419512,17.3151429 C12.6419512,14.2694286 10.1802927,11.7882857 7.12546341,11.7882857 C4.08546341,11.7882857 1.62380488,14.2694286 1.62380488,17.3151429 C1.62380488,19.592 2.99921951,21.5531429 4.96780488,22.3925714 C3.648,24.9182857 1.98341463,27.0948571 0,28.692 C0.622829268,31.1694286 1.2604878,33.6505714 1.88331707,36.1465714 C24.8649756,28.458 49.2813659,28.458 72.2630244,36.1465714 C72.8858537,33.6505714 73.5235122,31.1694286 74.1463415,28.692 C72.1629268,27.0948571 70.5131707,24.9182857 69.1933659,22.3925714 L69.1933659,22.3925714 Z M9.48702439,30.0402857 C8.15239024,30.0402857 7.06614634,28.952 7.06614634,27.6037143 C7.06614634,26.2665714 8.15239024,25.1782857 9.48702439,25.1782857 C10.8327805,25.1782857 11.9041951,26.2665714 11.9041951,27.6037143 C11.9041951,28.952 10.8327805,30.0402857 9.48702439,30.0402857 L9.48702439,30.0402857 Z M37.088,27.1951429 C35.7422439,27.1951429 34.6708293,26.1068571 34.6708293,24.7734286 C34.6708293,23.4362857 35.7422439,22.348 37.088,22.348 C38.4189268,22.348 39.5051707,23.4362857 39.5051707,24.7734286 C39.5051707,26.1068571 38.4189268,27.1951429 37.088,27.1951429 L37.088,27.1951429 Z M63.8770732,30.0402857 C62.5313171,30.0402857 61.4450732,28.952 61.4450732,27.6037143 C61.4450732,26.2665714 62.5313171,25.1782857 63.8770732,25.1782857 C65.2117073,25.1782857 66.2979512,26.2665714 66.2979512,27.6037143 C66.2979512,28.952 65.2117073,30.0402857 63.8770732,30.0402857 L63.8770732,30.0402857 Z" id="Fill-3" fill="#E9BE32" sketch:type="MSShapeGroup" mask="url(#mask-2)"></path>
                    </g>
                </g>
            </g>
        </g>
    </g>
</svg>